{"title":"The Fighter 2010.WEBSCR.x264.Feel-Free","uid":6134265,"size":1113100391,"categoryP":"video","categoryS":"movies","magnet":"?xt=urn:btih:b93ff3cb93efc1255aa0b6bd9892fd190206968d&amp;dn=The+Fighter+2010.WEBSCR.x264.Feel-Free&amp;tr=udp%3A%2F%2Ftracker.openbittorrent.com%3A80&amp;tr=udp%3A%2F%2Fopen.demonii.com%3A1337&amp;tr=udp%3A%2F%2Ftracker.coppersurfer.tk%3A6969&amp;tr=udp%3A%2F%2Fexodus.desync.com%3A6969","seeders":0,"leechers":1,"uploader":"neon","files":-1,"time":1296239404,"description":"Genre:Biography | Drama | Sport\nLanguage:English\n &lt;a href=&quot; http://www.imdb.com/title/tt0964517/&quot; rel=&quot;nofollow&quot; target=&quot;_NEW&quot;&gt; http://www.imdb.com/title/tt0964517/&lt;/a&gt;\nSource:mf34inc/T0XiC-iNK Thx.\nSubtitles:Romana\n\n\nFormat : MPEG-4\nFormat profile : Base Media\nCodec ID : isom\nFile size : 1.03 GiB\nDuration : 1h 55mn\nOverall bit rate : 1 281 Kbps\nMovie name : The.Fighter.2010.WEBSCR.x264.Feel-Free\n\n\nVideo\nFormat settings, CABAC : Yes\nFormat settings, ReFrames : 4 frames\nFormat settings, GOP : M=4, N=16\nCodec ID : avc1\nCodec ID/Info : Advanced Video Coding\nDuration : 1h 55mn\nBit rate mode : Variable\nBit rate : 899 Kbps\nWidth : 720 pixels\nHeight : 304 pixels\nDisplay aspect ratio : 2.35:1\nFrame rate mode : Constant\nFrame rate : 23.976 fps\nColor space : YUV\nChroma subsampling : 4:2:0\nBit depth : 8 bits\nScan type : Progressive\nBits/(Pixel*Frame) : 0.171\nStream size : 749 MiB (71%)\nWriting library : x264\n\nAudio\nID : 2\nFormat : AAC\nFormat/Info : Advanced Audio Codec\nFormat version : Version 4\nFormat profile : LC\nCodec ID : 40\nDuration : 1h 55mn\nBit rate mode : Variable\nBit rate : 370 Kbps\nChannel(s) : 6 channels\nChannel positions : Front: L C R, Side: L R, LFE\nSampling rate : 48.0 KHz\nStream size : 306 MiB (29%)\n\n\nPlot:\nA look at the early years of boxer &quot;Irish&quot; Micky Ward and his brother who helped train him before going pro in the mid 1980s\n &lt;a href=&quot;\nhttp://rapidhdd.com/images/694799vlcsnap-00001.png&quot; rel=&quot;nofollow&quot; target=&quot;_NEW&quot;&gt;\nhttp://rapidhdd.com/images/694799vlcsnap-00001.png&lt;/a&gt; &lt;a href=&quot;\nhttp://www.rapidhdd.com/images/157399vlcsnap-00002.png&quot; rel=&quot;nofollow&quot; target=&quot;_NEW&quot;&gt;\nhttp://www.rapidhdd.com/images/157399vlcsnap-00002.png&lt;/a&gt; &lt;a href=&quot;\nhttp://www.rapidhdd.com/images/425466vlcsnap-00004.png&quot; rel=&quot;nofollow&quot; target=&quot;_NEW&quot;&gt;\nhttp://www.rapidhdd.com/images/425466vlcsnap-00004.png&lt;/a&gt; &lt;a href=&quot;\nhttp://www.rapidhdd.com/images/75072vlcsnap-00005.png&quot; rel=&quot;nofollow&quot; target=&quot;_NEW&quot;&gt;\nhttp://www.rapidhdd.com/images/75072vlcsnap-00005.png&lt;/a&gt;","torrent":{"xt":"urn:btih:b93ff3cb93efc1255aa0b6bd9892fd190206968d","amp;dn":"The+Fighter+2010.WEBSCR.x264.Feel-Free","amp;tr":["udp%3A%2F%2Ftracker.openbittorrent.com%3A80","udp%3A%2F%2Fopen.demonii.com%3A1337","udp%3A%2F%2Ftracker.coppersurfer.tk%3A6969","udp%3A%2F%2Fexodus.desync.com%3A6969"],"infoHash":"b93ff3cb93efc1255aa0b6bd9892fd190206968d","infoHashBuffer":{"type":"Buffer","data":[185,63,243,203,147,239,193,37,90,160,182,189,152,146,253,25,2,6,150,141]},"announce":[],"urlList":[]}}